<svg width="50" height="50" viewBox="0 0 50 50" fill="none" xmlns="http://www.w3.org/2000/svg">
<g clip-path="url(#clip0_7_6)">
<path d="M25 0C11.2146 0 0 11.2146 0 25C0 38.7854 11.2146 50 25 50C38.7854 50 50 38.7854 50 25H44.375C44.375 35.6833 35.6833 44.375 25 44.375C14.3167 44.375 5.625 35.6833 5.625 25C5.625 14.3167 14.3167 5.625 25 5.625V0ZM40.4167 5.38125L24.7812 24.9042L17.475 18.9167L13.3042 23.9917L23.1812 32.0917C23.5168 32.3685 23.9041 32.5757 24.3206 32.7012C24.737 32.8268 25.1743 32.8682 25.6069 32.823C26.0396 32.7778 26.4589 32.647 26.8404 32.4381C27.2219 32.2292 27.558 31.9464 27.8292 31.6062L45.5458 9.4875L40.4167 5.38125Z" fill="#444444"/>
</g>
<defs>
<clipPath id="clip0_7_6">
<rect width="50" height="50" fill="white"/>
</clipPath>
</defs>
</svg>
